<?xml version="1.0" encoding="UTF-8" standalone="no"?>
<svg width="44px" height="49px" viewBox="0 0 44 49" version="1.1" xmlns="http://www.w3.org/2000/svg" xmlns:xlink="http://www.w3.org/1999/xlink">
    <!-- Generator: Sketch 3.7.2 (28276) - http://www.bohemiancoding.com/sketch -->
    <title>DKT_logo_final</title>
    <desc>Created with Sketch.</desc>
    <defs></defs>
    <g id="Page-1" stroke="none" stroke-width="1" fill="none" fill-rule="evenodd">
        <g id="DKT_logo_final">
            <g id="Ebene_1">
                <g id="Group">
                    <path d="M14.3343682,0 C14.4801592,0.168071642 14.6285771,0.333779104 14.7710846,0.504429851 C15.7351443,1.65750448 15.8305871,2.90020299 15.0760199,4.18352239 C14.927602,4.43584478 14.6327363,4.60391642 14.4120796,4.81755224 C14.3534129,4.87429254 14.2800796,4.95553433 14.2798607,5.02581493 C14.2726368,6.90856119 14.2730746,8.79130746 14.2772338,10.6740537 C14.2774527,10.7733493 14.3105075,10.8767284 14.3472836,10.9710806 C15.1318408,12.9810627 15.9216517,14.9891104 16.7020498,17.000597 C16.7683781,17.1718925 16.8077811,17.3646806 16.808,17.5475821 C16.8130348,26.8065672 16.8128159,36.0655522 16.8101891,45.3245373 C16.8101891,45.521194 16.821791,45.665194 17.0398209,45.7799642 C17.3644577,45.9508299 17.4844179,46.3778866 17.3705871,46.7314388 C17.2574129,47.0828418 16.9207363,47.3141015 16.5286766,47.3095881 C16.1508458,47.3052896 15.8273035,47.0733851 15.7163184,46.7275701 C15.5998607,46.3639164 15.7329552,45.9523343 16.0713831,45.7606209 C16.2366567,45.6669134 16.2727761,45.5641791 16.2725572,45.3941731 C16.2690547,36.1351881 16.2699303,26.876203 16.26599,17.6172179 C16.26599,17.475797 16.2344677,17.3268537 16.1830249,17.1942448 C15.4157612,15.2233791 14.6397413,13.2557373 13.876199,11.2835821 C13.8155622,11.1266866 13.7273433,11.0740299 13.5784876,11.0538269 C11.9069254,10.8266507 10.235801,10.5971104 8.56445771,10.3682149 C8.48652736,10.3574687 8.40772139,10.330603 8.33132338,10.336406 C7.60937313,10.3905672 7.26634826,10.008 7.01176119,9.38299701 C6.66917413,8.54134925 6.22238806,7.74032239 5.82244776,6.92618507 C4.22772139,7.12327164 2.28340299,5.3991403 2.90137313,3.02163582 C4.86561194,2.86517015 6.26901493,3.96752239 6.51397015,5.71637015 C6.5481194,5.96117015 6.41765174,6.22681791 6.3719005,6.48429851 C6.35570149,6.57499701 6.33118408,6.68546866 6.36730348,6.76069254 C6.81846766,7.69948657 7.27707463,8.63484179 7.744,9.56632836 C7.78230846,9.64262687 7.88738308,9.72365373 7.97144279,9.73547463 C9.85818905,10.0013373 11.7462488,10.2579582 13.6343085,10.5156537 C13.6502886,10.517803 13.6675821,10.5107104 13.7006368,10.5051224 C13.7041393,10.4329075 13.7111443,10.3574687 13.7113632,10.2818149 C13.7120199,8.55381493 13.7098308,6.82581493 13.7150846,5.09781493 C13.7155224,4.94564776 13.684,4.85709851 13.5349254,4.77757612 C13.0964577,4.54395224 12.8941891,4.12979104 12.7667861,3.6838209 C12.3670647,2.28401194 12.8114428,1.15350448 13.9313632,0.246734328 C14.0316219,0.165062687 14.1301294,0.0821014925 14.2292935,0 L14.3343682,0 L14.3343682,0 Z M14.1642786,0.712907463 C13.9232637,1.0249791 13.6395622,1.31254925 13.4521791,1.65127164 C13.0047363,2.45939104 13.0960199,3.27954627 13.5526567,4.05478209 C13.7853532,4.4496 14.1701891,4.46786866 14.4486368,4.10357015 C14.6336119,3.86156418 14.7850945,3.57764776 14.8796617,3.28964776 C15.1926965,2.33795821 14.9096517,1.31190448 14.1642786,0.712907463 L14.1642786,0.712907463 Z M3.38362189,3.56797612 C3.21353234,4.96993433 3.98561194,5.9742806 5.2160796,6.36071642 C5.73816915,6.52470448 6.07900498,6.22595821 5.96604975,5.69315821 C5.69701493,4.42466866 4.82577114,3.60193433 3.38362189,3.56797612 L3.38362189,3.56797612 Z M16.5595423,46.1593075 C16.3629652,46.1719881 16.2386269,46.2727881 16.233592,46.4597731 C16.2285572,46.6495522 16.3642786,46.7907582 16.5413731,46.7610985 C16.6589254,46.7415403 16.8115025,46.5964657 16.8421493,46.480406 C16.8892139,46.301803 16.7473632,46.1878925 16.5595423,46.1593075 L16.5595423,46.1593075 Z" id="Shape" fill="#04AEEE"></path>
                    <path d="M0,40.2428418 L0,26.9933373 C0.0253930348,26.9849552 0.0483781095,26.9707701 0.0711442786,26.9707701 C1.99663682,26.9722746 3.92256716,26.9490627 5.84740299,26.9836657 C8.61677612,27.0330985 10.5302289,28.4909373 11.2368557,31.1237731 C11.7902488,33.186197 11.7403383,35.2443224 10.8189652,37.2115343 C9.98230846,38.997994 8.5040398,39.9636537 6.53170149,40.1768597 C5.80427861,40.2555224 5.06459701,40.2359642 4.33038806,40.2404776 C2.89524378,40.2488597 1.4600995,40.2428418 0,40.2428418 L0,40.2428418 Z M2.53098507,38.2077134 C3.68571144,38.1589254 4.81810945,38.1735403 5.93430846,38.0488836 C7.49751244,37.8743642 8.464199,36.9736119 8.82167164,35.4674149 C9.11741294,34.2208478 9.10734328,32.9633194 8.81838806,31.7154627 C8.49397015,30.315009 7.59120398,29.4821731 6.16503483,29.1950328 C4.97856716,28.9560358 3.7761194,29.0720955 2.57958209,29.0570507 C2.56579104,29.0568358 2.552,29.0746746 2.53120398,29.0890746 C2.53098507,32.0993194 2.53098507,35.1138627 2.53098507,38.2077134 L2.53098507,38.2077134 Z" id="Shape" fill="#F8F5F5"></path>
                    <path d="M33.3347065,40.2340299 C32.2771741,40.2340299 31.2721791,40.2385433 30.267403,40.2258627 C30.1835622,40.2247881 30.0780498,40.1244179 30.0215721,40.0438209 C28.6869055,38.1440955 27.3574925,36.2405015 26.0269851,34.3379821 C25.9726965,34.260394 25.9166567,34.1840955 25.8435423,34.0824358 C25.5723184,34.3416358 25.3030647,34.5933134 25.0403781,34.8514388 C24.7128955,35.1731821 24.2707065,35.449791 24.1006169,35.8394507 C23.9388458,36.210197 24.0629652,36.7015164 24.0627463,37.1397493 C24.0618706,38.1453851 24.0618706,39.1510209 24.0612139,40.1566567 C24.0612139,40.1727761 24.0550846,40.1888955 24.0489552,40.2196299 L21.5497114,40.2196299 L21.5497114,26.9957015 L24.0618706,26.9957015 L24.0618706,32.7099224 C24.4707861,32.3183284 24.8694129,31.9503761 25.2524975,31.5673791 C26.5031045,30.3171582 27.7482388,29.0613493 28.9953433,27.8079045 C29.2337313,27.5682627 29.4701493,27.3264716 29.7129154,27.0913433 C29.7645771,27.0412657 29.8400995,26.9830209 29.9051144,26.982591 C30.9256517,26.9757134 31.9461891,26.9778627 33.0061294,26.9778627 C31.1835224,28.7664716 29.3922189,30.5243463 27.5853731,32.2976955 C29.4992637,34.9393433 31.4013333,37.5648716 33.3347065,40.2340299 L33.3347065,40.2340299 Z" id="Shape" fill="#F8F5F5"></path>
                    <path d="M39.7779701,29.1539821 L39.7779701,40.2200597 L37.2487363,40.2200597 L37.2487363,29.1593552 L33.0429055,29.1593552 L33.0429055,26.9933373 L43.9969353,26.9933373 L43.9969353,29.1539821 L39.7779701,29.1539821 L39.7779701,29.1539821 Z" id="Shape" fill="#F8F5F5"></path>
                    <path d="M23.7232239,2.48711642 C24.0745672,4.60262687 22.4231443,6.44260299 20.4365771,6.1369791 C20.2196418,6.7366209 20.0005174,7.34077612 19.7822687,7.94514627 C19.6071443,8.43023284 19.4289552,8.91424478 19.2621493,9.40191045 C19.235005,9.48100299 19.2264677,9.59620299 19.2656517,9.66282985 C19.9149254,10.7714149 20.5729552,11.8750567 21.2296716,12.9793433 C21.2329552,12.9849313 21.2430249,12.9868657 21.2730149,13.0025552 C21.6000597,12.6803821 21.9323582,12.3526209 22.2653134,12.0252896 C22.729393,11.5692179 23.1965373,11.1161552 23.6555821,10.6553552 C23.7219104,10.5889433 23.7987463,10.4812657 23.7895522,10.4017433 C23.7124975,9.73203582 24.068,9.26715224 24.5375522,8.86567164 C25.6629453,7.90280597 26.9205572,7.79641791 28.3889751,8.52286567 C28.2173532,9.53086567 27.483801,10.8335284 26.0118806,11.1406567 C25.4103284,11.2661731 24.8197214,11.326997 24.2490348,11.0196537 C24.2028458,10.9947224 24.0942687,11.0172896 24.0535522,11.0566209 C23.2317811,11.8544239 22.4130746,12.6550209 21.6048756,13.4659343 C21.5488358,13.5220299 21.5488358,13.6711881 21.5759801,13.7618866 C21.8183085,14.5768836 22.0676418,15.3901612 22.3279204,16.1997851 C22.379801,16.361194 22.3500299,16.4639284 22.2403582,16.5879403 C20.9661095,18.0272955 19.695801,19.4700896 18.4324975,20.9189015 C18.3462488,21.0177672 18.2821095,21.1722985 18.2821095,21.3010388 C18.2751045,28.8821015 18.2748856,36.4631642 18.2825473,44.0442269 C18.2827662,44.1703881 18.3534726,44.326209 18.4440995,44.4177672 C19.0907463,45.0709254 19.7538109,45.708609 20.4048358,46.3578985 C20.5153831,46.4681552 20.6086368,46.5036179 20.7682189,46.4604179 C21.1545871,46.3557493 21.5370149,46.5255403 21.7322786,46.8595343 C21.9183483,47.1776239 21.8677811,47.5971582 21.6112239,47.8643104 C21.3544478,48.1316776 20.934806,48.2075463 20.5968159,48.0476418 C20.2511642,47.8840836 20.0401393,47.5088239 20.1298905,47.1271164 C20.1732338,46.9431403 20.1182886,46.846209 19.9976716,46.7292896 C19.2877612,46.0406687 18.5800398,45.3496836 17.8834826,44.6479522 C17.7926368,44.556394 17.7245572,44.3986388 17.7243383,44.271403 C17.7168955,36.544191 17.7171144,28.8169791 17.7232438,21.0897672 C17.7232438,20.9664 17.7775323,20.8168119 17.8589652,20.7235343 C19.1062886,19.2955701 20.3608358,17.8738388 21.6191045,16.4551164 C21.7303085,16.3298149 21.7524179,16.2264358 21.7005373,16.0652418 C21.4551443,15.3048358 21.2491542,14.5315343 20.9820896,13.7786507 C20.8546866,13.4190806 20.6320597,13.0900299 20.436796,12.7560358 C19.85801,11.7660896 19.2671841,10.782591 18.6938706,9.7894209 C18.6358607,9.68905075 18.6229453,9.52506269 18.6614726,9.41523582 C19.0690746,8.25614328 19.4950647,7.10349851 19.9039801,5.94483582 C19.9477612,5.82103881 19.9449154,5.66242388 19.9101095,5.53411343 C19.7903682,5.09115224 19.8801194,4.67656119 20.0740697,4.28389254 C20.7467662,2.92040597 21.8802587,2.24876418 23.7232239,2.48711642 L23.7232239,2.48711642 Z M23.1901891,3.01088955 C22.1808159,2.85657313 21.1624677,3.39560597 20.656796,4.37717015 C20.5412139,4.60133731 20.4578109,4.85731343 20.4308856,5.10619701 C20.3890746,5.49349254 20.6414726,5.72496716 21.0287164,5.65447164 C22.2425473,5.43352836 23.2558607,4.52267463 23.1901891,3.01088955 L23.1901891,3.01088955 Z M27.7287562,8.84654328 C26.4711443,8.3545791 25.4661493,8.61270448 24.5922786,9.60587463 C24.4874229,9.72494328 24.4204378,9.88334328 24.3628657,10.0335761 C24.2713632,10.2725731 24.3709652,10.4580537 24.5929353,10.5659463 C24.7150846,10.6252657 24.8564975,10.6712597 24.9911244,10.6770627 C26.3349851,10.7348776 27.2607363,10.1558687 27.7287562,8.84654328 L27.7287562,8.84654328 Z M21.3207363,47.3637493 C21.2806766,47.1176597 21.1948657,47.0028896 21.0072637,46.9856955 C20.8065274,46.9674269 20.6926965,47.0727403 20.668398,47.2627343 C20.6473831,47.4269373 20.8065274,47.6117731 20.9669851,47.5758806 C21.0948259,47.5475104 21.2036219,47.4376836 21.3207363,47.3637493 L21.3207363,47.3637493 Z" id="Shape" fill="#08B0EF"></path>
                    <path d="M3.18638806,16.0972657 C4.33367164,14.6566209 5.736199,14.3067224 7.26,14.9454806 C7.65556219,15.111403 7.98063682,15.3602866 8.14985075,15.7748776 C8.17436816,15.8350567 8.31227861,15.8810507 8.39808955,15.8816955 C9.4398607,15.889003 10.4820697,15.8814806 11.5238408,15.8928716 C11.6457711,15.8941612 11.7970348,15.9536955 11.8835025,16.0373015 C12.9740896,17.0940896 14.0574527,18.1581851 15.1344677,19.2280836 C15.214806,19.3078209 15.275005,19.4468776 15.2752239,19.5586388 C15.281791,27.1154149 15.2806965,34.672191 15.2844179,42.2289672 C15.2844179,42.3830687 15.2329751,42.4757015 15.1114826,42.5706985 C13.7492338,43.6360836 12.3931144,44.709206 11.0319602,45.7763104 C10.8931741,45.8850627 10.821592,45.9785552 10.8642786,46.1773612 C10.9500896,46.5758328 10.7511045,46.9222925 10.3936318,47.0905791 C10.0514826,47.2515582 9.64322388,47.1739701 9.3840398,46.8986507 C9.12726368,46.6261254 9.08216915,46.2192716 9.27261692,45.8938746 C9.46175124,45.5704119 9.828199,45.3999761 10.2134726,45.5014209 C10.3949453,45.5491343 10.5028657,45.4975522 10.6320199,45.3952478 C11.9329751,44.3644657 13.2363383,43.3366925 14.5429851,42.3127881 C14.6701692,42.2130627 14.7264279,42.1111881 14.726209,41.9463403 C14.7218308,34.5701015 14.7233632,27.1938627 14.7159204,19.8176239 C14.7157015,19.6903881 14.6491542,19.5315582 14.5583085,19.4408597 C13.600597,18.4846567 12.6347861,17.536406 11.6608756,16.5961075 C11.5684975,16.5069134 11.4071642,16.4435104 11.2769154,16.441791 C10.305194,16.4291104 9.33303483,16.4323343 8.36131343,16.4387821 C8.26915423,16.4394269 8.13277612,16.4684418 8.09249751,16.5312 C7.68358209,17.1684537 7.03387065,17.3689791 6.33818905,17.484394 C4.98228856,17.7087761 4.02545274,17.055403 3.18638806,16.0972657 L3.18638806,16.0972657 Z M3.87637811,16.1157493 C4.26756219,16.3650627 4.59329353,16.6371582 4.96827861,16.7985672 C5.78304478,17.1491104 6.58489552,17.0115582 7.31647761,16.5522627 C7.7518806,16.2788776 7.74071642,15.9130746 7.32961194,15.6199164 C6.82481592,15.2599164 6.23924378,15.1668537 5.63703483,15.1945791 C4.94857711,15.2261731 4.43852736,15.6237851 3.87637811,16.1157493 L3.87637811,16.1157493 Z M10.3380299,46.3269493 C10.3115423,46.1408239 10.2099701,46.0150925 10.0190846,46.0181015 C9.83060697,46.0211104 9.71108458,46.1397493 9.71546269,46.330603 C9.71940299,46.5087761 9.83826866,46.6183881 10.013393,46.6246209 C10.2069055,46.6314985 10.3069453,46.5070567 10.3380299,46.3269493 L10.3380299,46.3269493 Z" id="Shape" fill="#09B0EF"></path>
                    <path d="M32.6865274,18.4846567 C31.5705473,19.9029493 30.0898706,20.3037851 28.5056517,19.5612179 C28.1987463,19.4172179 27.9564179,19.2029373 27.7876418,18.9054806 C27.7532736,18.8448716 27.6420697,18.7864119 27.5713632,18.7917851 C26.3244776,18.8859224 25.0780299,18.9862925 23.8328955,19.1008478 C23.7466468,19.1088 23.6341294,19.2255045 23.5984478,19.316203 C23.3493333,19.9480836 23.1118209,20.5844776 22.8835025,21.2236657 C22.8182687,21.4059224 22.7287363,21.490603 22.5205572,21.5204776 C21.6648557,21.6429851 20.8128756,21.7910687 19.959801,21.9316299 C19.9096716,21.939797 19.8619502,21.963009 19.7993433,21.9836418 L19.7993433,22.2417672 C19.7993433,28.9461493 19.8,35.6505313 19.7956219,42.3549134 C19.795403,42.534591 19.8313035,42.6394746 20.0077413,42.7344716 C20.3470448,42.9169433 20.4821095,43.3240119 20.3735323,43.6977672 C20.276995,44.0296119 19.9357214,44.2868776 19.5716816,44.3019224 C19.2043582,44.3171821 18.8438209,44.0732418 18.7225473,43.726997 C18.5993035,43.3749493 18.711602,42.9683104 19.0344876,42.7671403 C19.2122388,42.6562388 19.244199,42.531797 19.244199,42.3478209 C19.2406965,35.5058866 19.2428856,28.6639522 19.2352239,21.8220179 C19.235005,21.5641075 19.3026468,21.4759881 19.5690547,21.4392358 C20.4085572,21.3238209 21.2421493,21.1671403 22.0801194,21.0409791 C22.29399,21.0087403 22.4065075,20.9279284 22.4789652,20.718591 C22.7004975,20.0770388 22.954209,19.4462328 23.1844975,18.8074746 C23.241194,18.6501493 23.3138706,18.5807284 23.4962189,18.567403 C24.8308856,18.4702567 26.1642388,18.3580657 27.4982488,18.2527522 C27.6370348,18.241791 27.7243781,18.2033194 27.798806,18.0627582 C28.0844776,17.5228657 28.6072239,17.3047164 29.1684975,17.1566328 C30.5535124,16.7906149 31.7371343,17.2832239 32.6865274,18.4846567 L32.6865274,18.4846567 Z M31.9304279,18.4825075 C30.9795025,17.4375403 29.7477214,17.3425433 28.6374328,17.9694806 C28.1070249,18.2688716 28.1059303,18.7045254 28.6407164,19.0002627 C29.7755224,19.6278448 30.9700896,19.5259701 31.9304279,18.4825075 L31.9304279,18.4825075 Z M19.8612935,43.5312 C19.8359005,43.2530866 19.712,43.1170388 19.5344677,43.1529313 C19.4173532,43.1767881 19.2658706,43.3302448 19.2439801,43.4465194 C19.2104876,43.6249075 19.36,43.7706269 19.5508856,43.7370985 C19.6758806,43.7151761 19.7811741,43.5877254 19.8612935,43.5312 L19.8612935,43.5312 Z" id="Shape" fill="#09B0EF"></path>
                    <path d="M4.73361194,23.2951164 C5.06240796,21.1235104 7.13369154,19.7806567 8.85406965,20.6300418 C9.61783085,19.9225075 10.3868458,19.2102448 11.1799403,18.4752 C11.3692935,18.6284418 11.5553632,18.7795343 11.7416517,18.9299821 C12.2959204,19.3774567 12.8462488,19.8296597 13.4073035,20.2689672 C13.5787065,20.4030806 13.6502886,20.5423522 13.6500697,20.7660896 C13.6428458,27.1098269 13.644597,33.4537791 13.6419701,39.7975164 C13.6419701,39.9756896 13.6590448,40.1024955 13.8468657,40.2125373 C14.1918607,40.4145672 14.3063483,40.8186269 14.1776318,41.1848597 C14.0532935,41.5386269 13.7063284,41.7748299 13.3313433,41.7606448 C12.943005,41.7460299 12.6109254,41.4812418 12.5141692,41.109206 C12.421791,40.7537194 12.5734925,40.371797 12.9167363,40.1830925 C13.0599005,40.1044299 13.081791,40.0126567 13.081791,39.8746746 C13.0798209,33.5567284 13.0806965,27.2385672 13.0734726,20.9206209 C13.0732537,20.8131582 13.0036418,20.6743164 12.9195821,20.6038209 C12.361592,20.1354985 11.7909055,19.681791 11.2068657,19.2091701 C10.7723383,19.6106507 10.3472239,20.0028896 9.92254726,20.3959881 C9.82075622,20.4903403 9.72684577,20.5939343 9.61848756,20.6801194 C9.34923383,20.8939701 9.18549254,21.1041672 9.21657711,21.5065075 C9.25707463,22.0304955 8.88515423,22.4302567 8.51301493,22.7799403 C7.43818905,23.7900896 6.2158209,23.9042149 4.73361194,23.2951164 L4.73361194,23.2951164 Z M5.39383085,22.9392 C6.71667662,23.4012896 7.8398806,22.9443582 8.54037811,21.8658627 C8.87070647,21.3571343 8.64435821,20.9496358 8.03120398,20.9446925 C6.69391045,20.9337313 5.74167164,21.617194 5.39383085,22.9392 L5.39383085,22.9392 Z M13.6715224,40.8108896 C13.5907463,40.7556537 13.4845771,40.6406687 13.3560796,40.6064955 C13.2059104,40.5665194 13.0305672,40.7612418 13.049393,40.9187821 C13.0701891,41.0926567 13.176796,41.2102209 13.3589254,41.2093612 C13.5550647,41.2080716 13.6551045,41.085994 13.6715224,40.8108896 L13.6715224,40.8108896 Z" id="Shape" fill="#09B0EF"></path>
                </g>
            </g>
        </g>
    </g>
</svg>